<svg width="192" height="192" viewBox="0 0 192 192" fill="none" xmlns="http://www.w3.org/2000/svg">
<g clip-path="url(#clip0_1_5)">
<rect width="192" height="192" fill="white"/>
<path d="M96 96V32C96 29.8783 96.8429 27.8434 98.3431 26.3431C99.8434 24.8429 101.878 24 104 24H154.376C156.01 24.0001 157.605 24.5008 158.946 25.4346C160.288 26.3684 161.311 27.6906 161.878 29.2233C162.445 30.756 162.529 32.4256 162.119 34.0076C161.709 35.5895 160.824 37.0079 159.584 38.072L122.016 70.272" stroke="black" stroke-width="2" stroke-linecap="round" stroke-linejoin="round"/>
<path d="M96 168L36.688 108.688C33.6872 105.688 32.0009 101.619 32 97.376V51.32C32.0079 49.7414 32.4817 48.2003 33.3621 46.8899C34.2424 45.5795 35.4901 44.5583 36.9485 43.9542C38.407 43.3501 40.0114 43.1901 41.5604 43.4943C43.1095 43.7985 44.5342 44.5533 45.656 45.664L160 160.072" stroke="black" stroke-width="2" stroke-linecap="round" stroke-linejoin="round"/>
<path d="M97.712 27.048L165.024 146.776C165.881 148.301 166.214 150.065 165.972 151.797C165.731 153.53 164.929 155.135 163.688 156.368L154.344 165.672C152.843 167.165 150.812 168.002 148.696 168H50.808C48.9907 168.001 47.2273 167.383 45.808 166.248L26 150.4C24.7017 149.362 23.759 147.945 23.303 146.347C22.8469 144.748 22.9002 143.047 23.4553 141.48C24.0105 139.913 25.0399 138.558 26.4006 137.603C27.7613 136.648 29.3857 136.141 31.048 136.152L64.368 136.368" stroke="black" stroke-width="2" stroke-linecap="round" stroke-linejoin="round"/>
</g>
<defs>
<clipPath id="clip0_1_5">
<rect width="192" height="192" fill="white"/>
</clipPath>
</defs>
</svg>
